<svg viewBox="0 0 225 225" xmlns="http://www.w3.org/2000/svg">
<circle cx="56" cy="56" r="56.0" fill="rgb(191, 217, 230)" stroke-width="0"/><circle cx="56" cy="168" r="56.0" fill="rgb(93, 145, 167)" stroke-width="0"/><circle cx="196" cy="28" r="28.5" fill="rgb(201, 228, 237)" stroke-width="0"/><circle cx="126" cy="14" r="14.0" fill="rgb(204, 231, 238)" stroke-width="0"/><circle cx="126" cy="70" r="14.0" fill="rgb(222, 7, 101)" stroke-width="0"/><circle cx="154" cy="70" r="14.0" fill="rgb(227, 7, 79)" stroke-width="0"/><circle cx="126" cy="98" r="14.0" fill="rgb(177, 207, 218)" stroke-width="0"/><circle cx="140" cy="140" r="28.0" fill="rgb(129, 171, 187)" stroke-width="0"/><circle cx="196" cy="140" r="28.5" fill="rgb(116, 162, 178)" stroke-width="0"/><circle cx="140" cy="196" r="28.0" fill="rgb(53, 117, 144)" stroke-width="0"/><circle cx="196" cy="196" r="28.5" fill="rgb(44, 111, 138)" stroke-width="0"/><circle cx="147" cy="35" r="7.0" fill="rgb(127, 0, 0)" stroke-width="0"/><circle cx="161" cy="35" r="7.0" fill="rgb(207, 6, 40)" stroke-width="0"/><circle cx="147" cy="49" r="7.0" fill="rgb(139, 32, 40)" stroke-width="0"/><circle cx="161" cy="49" r="7.0" fill="rgb(213, 1, 49)" stroke-width="0"/><circle cx="147" cy="7" r="7.0" fill="rgb(204, 231, 240)" stroke-width="0"/><circle cx="161" cy="7" r="7.0" fill="rgb(204, 231, 240)" stroke-width="0"/><circle cx="147" cy="21" r="7.0" fill="rgb(229, 31, 108)" stroke-width="0"/><circle cx="161" cy="21" r="7.0" fill="rgb(245, 9, 91)" stroke-width="0"/><circle cx="147" cy="91" r="7.0" fill="rgb(199, 153, 0)" stroke-width="0"/><circle cx="161" cy="91" r="7.0" fill="rgb(232, 128, 17)" stroke-width="0"/><circle cx="147" cy="105" r="7.0" fill="rgb(191, 179, 157)" stroke-width="0"/><circle cx="161" cy="105" r="7.0" fill="rgb(218, 187, 0)" stroke-width="0"/><circle cx="133" cy="35" r="7.0" fill="rgb(189, 0, 27)" stroke-width="0"/><circle cx="119" cy="49" r="7.0" fill="rgb(227, 40, 119)" stroke-width="0"/><circle cx="133" cy="49" r="7.0" fill="rgb(117, 10, 18)" stroke-width="0"/><circle cx="115" cy="31" r="3.5" fill="rgb(242, 127, 184)" stroke-width="0"/><circle cx="122" cy="31" r="3.5" fill="rgb(255, 44, 129)" stroke-width="0"/><circle cx="115" cy="38" r="3.5" fill="rgb(219, 27, 110)" stroke-width="0"/><circle cx="122" cy="38" r="3.5" fill="rgb(203, 1, 59)" stroke-width="0"/><circle cx="182" cy="70" r="14.0" fill="rgb(217, 60, 15)" stroke-width="0"/><circle cx="182" cy="98" r="14.0" fill="rgb(236, 141, 21)" stroke-width="0"/><circle cx="210" cy="98" r="14.5" fill="rgb(193, 199, 185)" stroke-width="0"/><circle cx="203" cy="63" r="7.0" fill="rgb(244, 232, 0)" stroke-width="0"/><circle cx="217" cy="63" r="7.5" fill="rgb(179, 216, 224)" stroke-width="0"/><circle cx="203" cy="77" r="7.0" fill="rgb(255, 218, 17)" stroke-width="0"/><circle cx="213" cy="73" r="3.5" fill="rgb(247, 231, 22)" stroke-width="0"/><circle cx="220" cy="73" r="4.0" fill="rgb(170, 209, 214)" stroke-width="0"/><circle cx="213" cy="80" r="3.5" fill="rgb(230, 208, 1)" stroke-width="0"/><circle cx="223" cy="78" r="2.0" fill="rgb(172, 190, 230)" stroke-width="0"/><circle cx="219" cy="81" r="2.0" fill="rgb(241, 228, 0)" stroke-width="0"/><circle cx="223" cy="81" r="2.0" fill="rgb(161, 200, 181)" stroke-width="0"/><circle cx="219" cy="78" r="2.0" fill="rgb(191, 199, 235)" stroke-width="0"/></svg>