<svg viewBox="0 0 1999 1999" xmlns="http://www.w3.org/2000/svg">
<circle cx="499" cy="499" r="499.5" fill="rgb(116, 109, 83)" stroke-width="0"/><circle cx="1498" cy="499" r="500.0" fill="rgb(3, 5, 2)" stroke-width="0"/><circle cx="499" cy="1498" r="499.5" fill="rgb(95, 99, 76)" stroke-width="0"/><circle cx="1749" cy="1749" r="250.0" fill="rgb(225, 152, 161)" stroke-width="0"/><circle cx="1124" cy="1124" r="125.0" fill="rgb(105, 106, 100)" stroke-width="0"/><circle cx="1124" cy="1374" r="125.0" fill="rgb(248, 146, 245)" stroke-width="0"/><circle cx="1374" cy="1374" r="125.0" fill="rgb(255, 38, 181)" stroke-width="0"/><circle cx="1874" cy="1124" r="125.0" fill="rgb(126, 133, 92)" stroke-width="0"/><circle cx="1874" cy="1374" r="125.0" fill="rgb(255, 99, 210)" stroke-width="0"/><circle cx="1436" cy="1061" r="62.5" fill="rgb(233, 180, 232)" stroke-width="0"/><circle cx="1311" cy="1186" r="62.5" fill="rgb(255, 178, 255)" stroke-width="0"/><circle cx="1436" cy="1186" r="62.5" fill="rgb(255, 223, 255)" stroke-width="0"/><circle cx="1280" cy="1030" r="31.0" fill="rgb(75, 86, 69)" stroke-width="0"/><circle cx="1342" cy="1030" r="31.5" fill="rgb(189, 153, 155)" stroke-width="0"/><circle cx="1280" cy="1092" r="31.0" fill="rgb(255, 91, 246)" stroke-width="0"/><circle cx="1342" cy="1092" r="31.5" fill="rgb(255, 139, 255)" stroke-width="0"/><circle cx="1561" cy="1311" r="62.5" fill="rgb(255, 17, 213)" stroke-width="0"/><circle cx="1686" cy="1311" r="62.5" fill="rgb(255, 111, 255)" stroke-width="0"/><circle cx="1561" cy="1436" r="62.5" fill="rgb(251, 0, 134)" stroke-width="0"/><circle cx="1686" cy="1436" r="62.5" fill="rgb(253, 0, 113)" stroke-width="0"/><circle cx="1374" cy="1624" r="125.0" fill="rgb(250, 74, 221)" stroke-width="0"/><circle cx="1061" cy="1811" r="62.5" fill="rgb(119, 144, 112)" stroke-width="0"/><circle cx="1186" cy="1811" r="62.5" fill="rgb(68, 83, 50)" stroke-width="0"/><circle cx="1061" cy="1936" r="62.5" fill="rgb(182, 169, 153)" stroke-width="0"/><circle cx="1186" cy="1936" r="62.5" fill="rgb(19, 45, 16)" stroke-width="0"/><circle cx="1311" cy="1811" r="62.5" fill="rgb(36, 30, 16)" stroke-width="0"/><circle cx="1311" cy="1936" r="62.5" fill="rgb(89, 117, 59)" stroke-width="0"/><circle cx="1436" cy="1936" r="62.5" fill="rgb(23, 37, 20)" stroke-width="0"/><circle cx="1405" cy="1842" r="31.0" fill="rgb(64, 73, 54)" stroke-width="0"/><circle cx="1467" cy="1842" r="31.5" fill="rgb(93, 92, 64)" stroke-width="0"/><circle cx="1451" cy="1795" r="15.5" fill="rgb(43, 40, 31)" stroke-width="0"/><circle cx="1482" cy="1795" r="16.0" fill="rgb(92, 95, 74)" stroke-width="0"/><circle cx="1475" cy="1756" r="8.0" fill="rgb(60, 55, 35)" stroke-width="0"/><circle cx="1491" cy="1756" r="8.0" fill="rgb(27, 20, 2)" stroke-width="0"/><circle cx="1475" cy="1771" r="8.0" fill="rgb(134, 122, 96)" stroke-width="0"/><circle cx="1491" cy="1771" r="8.0" fill="rgb(162, 150, 124)" stroke-width="0"/><circle cx="1389" cy="1764" r="15.5" fill="rgb(89, 86, 71)" stroke-width="0"/><circle cx="1420" cy="1764" r="15.5" fill="rgb(150, 125, 95)" stroke-width="0"/><circle cx="1389" cy="1795" r="15.5" fill="rgb(31, 34, 15)" stroke-width="0"/><circle cx="1412" cy="1787" r="7.5" fill="rgb(151, 148, 115)" stroke-width="0"/><circle cx="1427" cy="1787" r="8.0" fill="rgb(34, 26, 13)" stroke-width="0"/><circle cx="1412" cy="1802" r="7.5" fill="rgb(115, 115, 103)" stroke-width="0"/><circle cx="1427" cy="1802" r="8.0" fill="rgb(18, 18, 10)" stroke-width="0"/><circle cx="1686" cy="1061" r="62.5" fill="rgb(126, 134, 77)" stroke-width="0"/><circle cx="1561" cy="1186" r="62.5" fill="rgb(255, 202, 255)" stroke-width="0"/><circle cx="1686" cy="1186" r="62.5" fill="rgb(240, 150, 238)" stroke-width="0"/><circle cx="1530" cy="1030" r="31.0" fill="rgb(88, 97, 54)" stroke-width="0"/><circle cx="1592" cy="1030" r="31.5" fill="rgb(125, 132, 90)" stroke-width="0"/><circle cx="1514" cy="1076" r="15.5" fill="rgb(96, 98, 74)" stroke-width="0"/><circle cx="1545" cy="1076" r="15.5" fill="rgb(117, 118, 87)" stroke-width="0"/><circle cx="1545" cy="1107" r="15.5" fill="rgb(239, 174, 238)" stroke-width="0"/><circle cx="1607" cy="1076" r="16.0" fill="rgb(114, 118, 81)" stroke-width="0"/><circle cx="1576" cy="1107" r="15.5" fill="rgb(244, 166, 241)" stroke-width="0"/><circle cx="1607" cy="1107" r="16.0" fill="rgb(255, 124, 252)" stroke-width="0"/><circle cx="1568" cy="1068" r="7.5" fill="rgb(110, 114, 81)" stroke-width="0"/><circle cx="1583" cy="1068" r="8.0" fill="rgb(121, 125, 90)" stroke-width="0"/><circle cx="1568" cy="1083" r="7.5" fill="rgb(112, 115, 86)" stroke-width="0"/><circle cx="1583" cy="1083" r="8.0" fill="rgb(117, 120, 89)" stroke-width="0"/><circle cx="1443" cy="1756" r="7.5" fill="rgb(126, 112, 85)" stroke-width="0"/><circle cx="1458" cy="1756" r="8.0" fill="rgb(95, 87, 64)" stroke-width="0"/><circle cx="1443" cy="1771" r="7.5" fill="rgb(192, 176, 151)" stroke-width="0"/><circle cx="1458" cy="1771" r="8.0" fill="rgb(207, 196, 168)" stroke-width="0"/><circle cx="1506" cy="1100" r="7.5" fill="rgb(252, 117, 245)" stroke-width="0"/><circle cx="1521" cy="1100" r="8.0" fill="rgb(255, 128, 255)" stroke-width="0"/><circle cx="1506" cy="1116" r="7.5" fill="rgb(254, 91, 246)" stroke-width="0"/><circle cx="1521" cy="1116" r="8.0" fill="rgb(247, 109, 248)" stroke-width="0"/><circle cx="1061" cy="1561" r="62.5" fill="rgb(240, 95, 212)" stroke-width="0"/><circle cx="1186" cy="1561" r="62.5" fill="rgb(241, 36, 199)" stroke-width="0"/><circle cx="1217" cy="1655" r="31.5" fill="rgb(249, 67, 230)" stroke-width="0"/><circle cx="1155" cy="1717" r="31.0" fill="rgb(0, 1, 0)" stroke-width="0"/><circle cx="1217" cy="1717" r="31.5" fill="rgb(19, 9, 0)" stroke-width="0"/><circle cx="1139" cy="1639" r="15.5" fill="rgb(230, 19, 136)" stroke-width="0"/><circle cx="1170" cy="1639" r="15.5" fill="rgb(252, 96, 221)" stroke-width="0"/><circle cx="1170" cy="1670" r="15.5" fill="rgb(52, 37, 32)" stroke-width="0"/><circle cx="1146" cy="1662" r="8.0" fill="rgb(50, 36, 23)" stroke-width="0"/><circle cx="1146" cy="1677" r="8.0" fill="rgb(146, 156, 132)" stroke-width="0"/><circle cx="1127" cy="1674" r="3.5" fill="rgb(139, 143, 116)" stroke-width="0"/><circle cx="1134" cy="1674" r="4.0" fill="rgb(51, 37, 24)" stroke-width="0"/><circle cx="1127" cy="1682" r="3.5" fill="rgb(119, 121, 97)" stroke-width="0"/><circle cx="1134" cy="1682" r="4.0" fill="rgb(6, 2, 0)" stroke-width="0"/><circle cx="1092" cy="1655" r="31.5" fill="rgb(136, 146, 109)" stroke-width="0"/><circle cx="1030" cy="1717" r="31.0" fill="rgb(190, 226, 180)" stroke-width="0"/><circle cx="1092" cy="1717" r="31.5" fill="rgb(174, 200, 139)" stroke-width="0"/><circle cx="1014" cy="1639" r="15.5" fill="rgb(87, 98, 84)" stroke-width="0"/><circle cx="1014" cy="1670" r="15.5" fill="rgb(104, 130, 85)" stroke-width="0"/><circle cx="1045" cy="1670" r="15.5" fill="rgb(185, 206, 173)" stroke-width="0"/><circle cx="1052" cy="1631" r="8.0" fill="rgb(255, 35, 164)" stroke-width="0"/><circle cx="1037" cy="1646" r="7.5" fill="rgb(71, 76, 72)" stroke-width="0"/><circle cx="1052" cy="1646" r="8.0" fill="rgb(20, 18, 19)" stroke-width="0"/><circle cx="1040" cy="1627" r="4.0" fill="rgb(254, 62, 181)" stroke-width="0"/><circle cx="1033" cy="1634" r="3.5" fill="rgb(63, 64, 66)" stroke-width="0"/><circle cx="1040" cy="1634" r="4.0" fill="rgb(21, 0, 2)" stroke-width="0"/><circle cx="1031" cy="1625" r="1.5" fill="rgb(153, 80, 135)" stroke-width="0"/><circle cx="1034" cy="1625" r="2.0" fill="rgb(255, 131, 221)" stroke-width="0"/><circle cx="1031" cy="1628" r="1.5" fill="rgb(34, 28, 32)" stroke-width="0"/><circle cx="1034" cy="1628" r="2.0" fill="rgb(32, 0, 19)" stroke-width="0"/><circle cx="1131" cy="1662" r="7.5" fill="rgb(154, 142, 130)" stroke-width="0"/></svg>