<svg viewBox="0 0 731 731" xmlns="http://www.w3.org/2000/svg">
<circle cx="182" cy="182" r="182.5" fill="rgb(144, 136, 134)" stroke-width="0"/><circle cx="547" cy="182" r="183.0" fill="rgb(201, 221, 232)" stroke-width="0"/><circle cx="456" cy="456" r="91.5" fill="rgb(223, 221, 208)" stroke-width="0"/><circle cx="639" cy="456" r="91.5" fill="rgb(69, 42, 33)" stroke-width="0"/><circle cx="456" cy="639" r="91.5" fill="rgb(201, 187, 142)" stroke-width="0"/><circle cx="639" cy="639" r="91.5" fill="rgb(197, 185, 137)" stroke-width="0"/><circle cx="91" cy="456" r="91.0" fill="rgb(30, 17, 11)" stroke-width="0"/><circle cx="273" cy="639" r="91.5" fill="rgb(141, 138, 119)" stroke-width="0"/><circle cx="45" cy="593" r="45.5" fill="rgb(17, 0, 1)" stroke-width="0"/><circle cx="136" cy="684" r="45.5" fill="rgb(29, 20, 5)" stroke-width="0"/><circle cx="227" cy="410" r="45.5" fill="rgb(54, 37, 27)" stroke-width="0"/><circle cx="318" cy="410" r="46.0" fill="rgb(222, 217, 198)" stroke-width="0"/><circle cx="227" cy="501" r="45.5" fill="rgb(47, 36, 34)" stroke-width="0"/><circle cx="342" cy="479" r="23.0" fill="rgb(76, 70, 56)" stroke-width="0"/><circle cx="342" cy="525" r="23.0" fill="rgb(124, 116, 97)" stroke-width="0"/><circle cx="307" cy="513" r="11.5" fill="rgb(207, 205, 192)" stroke-width="0"/><circle cx="284" cy="536" r="11.5" fill="rgb(31, 26, 23)" stroke-width="0"/><circle cx="307" cy="536" r="11.5" fill="rgb(210, 211, 197)" stroke-width="0"/><circle cx="278" cy="507" r="5.5" fill="rgb(45, 37, 34)" stroke-width="0"/><circle cx="289" cy="507" r="6.0" fill="rgb(247, 245, 232)" stroke-width="0"/><circle cx="278" cy="518" r="5.5" fill="rgb(37, 38, 40)" stroke-width="0"/><circle cx="289" cy="518" r="6.0" fill="rgb(245, 242, 223)" stroke-width="0"/><circle cx="284" cy="467" r="11.5" fill="rgb(245, 237, 224)" stroke-width="0"/><circle cx="307" cy="467" r="11.5" fill="rgb(20, 16, 15)" stroke-width="0"/><circle cx="284" cy="490" r="11.5" fill="rgb(229, 227, 214)" stroke-width="0"/><circle cx="307" cy="490" r="11.5" fill="rgb(17, 13, 14)" stroke-width="0"/><circle cx="22" cy="662" r="22.5" fill="rgb(239, 227, 201)" stroke-width="0"/><circle cx="22" cy="708" r="22.5" fill="rgb(235, 224, 194)" stroke-width="0"/><circle cx="79" cy="650" r="11.5" fill="rgb(51, 44, 38)" stroke-width="0"/><circle cx="56" cy="673" r="11.5" fill="rgb(25, 23, 26)" stroke-width="0"/><circle cx="79" cy="673" r="11.5" fill="rgb(34, 4, 16)" stroke-width="0"/><circle cx="50" cy="644" r="5.5" fill="rgb(21, 15, 15)" stroke-width="0"/><circle cx="61" cy="644" r="6.0" fill="rgb(252, 241, 219)" stroke-width="0"/><circle cx="50" cy="655" r="5.5" fill="rgb(26, 20, 20)" stroke-width="0"/><circle cx="61" cy="655" r="6.0" fill="rgb(242, 235, 206)" stroke-width="0"/><circle cx="56" cy="696" r="11.5" fill="rgb(37, 33, 30)" stroke-width="0"/><circle cx="79" cy="696" r="11.5" fill="rgb(219, 204, 181)" stroke-width="0"/><circle cx="56" cy="719" r="11.5" fill="rgb(44, 43, 39)" stroke-width="0"/><circle cx="79" cy="719" r="11.5" fill="rgb(240, 225, 196)" stroke-width="0"/><circle cx="113" cy="570" r="22.5" fill="rgb(40, 20, 21)" stroke-width="0"/><circle cx="158" cy="570" r="23.0" fill="rgb(10, 2, 0)" stroke-width="0"/><circle cx="102" cy="604" r="11.0" fill="rgb(48, 43, 39)" stroke-width="0"/><circle cx="124" cy="604" r="11.5" fill="rgb(19, 13, 15)" stroke-width="0"/><circle cx="102" cy="627" r="11.0" fill="rgb(39, 30, 31)" stroke-width="0"/><circle cx="147" cy="604" r="11.5" fill="rgb(236, 229, 203)" stroke-width="0"/><circle cx="170" cy="604" r="11.5" fill="rgb(9, 5, 4)" stroke-width="0"/><circle cx="147" cy="627" r="11.5" fill="rgb(28, 20, 9)" stroke-width="0"/><circle cx="170" cy="627" r="11.5" fill="rgb(247, 234, 217)" stroke-width="0"/><circle cx="118" cy="621" r="5.5" fill="rgb(235, 224, 196)" stroke-width="0"/><circle cx="129" cy="621" r="6.0" fill="rgb(17, 7, 8)" stroke-width="0"/><circle cx="115" cy="630" r="2.5" fill="rgb(13, 2, 0)" stroke-width="0"/><circle cx="120" cy="630" r="3.0" fill="rgb(207, 200, 171)" stroke-width="0"/><circle cx="115" cy="636" r="2.5" fill="rgb(24, 12, 14)" stroke-width="0"/><circle cx="120" cy="636" r="3.0" fill="rgb(240, 235, 205)" stroke-width="0"/><circle cx="129" cy="632" r="6.0" fill="rgb(21, 8, 0)" stroke-width="0"/></svg>